<svg version="1.2" xmlns="http://www.w3.org/2000/svg" viewBox="0 0 927 100" width="927" height="100">
	<title>1</title>
	<style>
		.s0 { fill: #ffffff } 
		.s1 { fill: #8f9194 } 
		.s2 { fill: #c1c2c4 } 
		.s3 { fill: #636366 } 
		.s4 { fill: #fffffe } 
		.s5 { fill: #f79e1b } 
	</style>
	<g id="GPay">
		<path id="Base_1_" class="s0" d="m899.5 24.2h-46.9c-14.6 0-26.6 12-26.6 26.7 0 14.6 12 26.6 26.6 26.6h46.9c14.7 0 26.7-12 26.7-26.6 0-14.7-12-26.7-26.7-26.7z"/>
		<path id="Outline" fill-rule="evenodd" class="s1" d="m926.2 50.9c0 14.6-12 26.6-26.7 26.6h-46.9c-14.6 0-26.6-12-26.6-26.6 0-14.7 12-26.7 26.6-26.7h46.9c14.7 0 26.7 12 26.7 26.7zm-73.6-24.5c-3.2 0-6.4 0.6-9.5 1.9-2.9 1.2-5.5 3-7.7 5.3-2.3 2.2-4.1 4.8-5.3 7.8-1.3 3-1.9 6.2-1.9 9.5 0 3.2 0.6 6.4 1.9 9.5 1.2 2.9 3 5.5 5.3 7.7 2.2 2.3 4.8 4.1 7.7 5.3 3.1 1.3 6.3 1.9 9.5 1.9h46.9c3.3 0 6.5-0.6 9.5-1.9 3-1.2 5.6-3 7.8-5.3 2.3-2.2 4-4.8 5.3-7.7 1.3-3.1 1.9-6.3 1.9-9.5 0-3.3-0.6-6.5-1.9-9.5-1.3-3-3-5.6-5.3-7.8-2.2-2.3-4.8-4.1-7.8-5.3-3-1.3-6.2-1.9-9.5-1.9z"/>
		<g id="Google_Pay_Lockup_1_">
			<g id="Pay_Typeface_3_">
				<path id="Letter_p_3_" fill-rule="evenodd" class="s1" d="m873.8 60.8h-2.6v-19.9h6.8q2.6 0 4.4 1.7 1.8 1.7 1.8 4.2 0 2.6-1.8 4.2-1.8 1.7-4.4 1.7h-4.2zm0-10.5h4.2q1.6 0 2.6-1 1-1 1-2.4 0-1.4-1-2.5-1-1-2.6-1h-4.2z"/>
				<path id="Letter_a_3_" fill-rule="evenodd" class="s1" d="m890.9 46.7q2.8 0 4.5 1.6 1.6 1.5 1.6 4.1v8.4h-2.4v-1.9h-0.1q-1.6 2.4-4.3 2.3-2.2 0.1-3.7-1.3-1.5-1.3-1.5-3.3 0-2.1 1.6-3.4 1.6-1.2 4.2-1.2 2.3 0 3.8 0.8v-0.6q0-1.3-1.1-2.2-1-1-2.5-1-2.1 0-3.3 1.8l-2.3-1.4q1.9-2.7 5.5-2.7zm-3.3 9.9q0 1 0.9 1.7 0.8 0.7 1.9 0.7 1.7 0 2.9-1.2 1.3-1.2 1.3-2.9-1.2-0.9-3.4-0.9-1.5 0-2.5 0.7-1.1 0.8-1.1 1.9z"/>
				<path id="Letter_y_3_" class="s1" d="m910.9 47.2l-8.5 19.6h-2.6l3.1-6.9-5.6-12.7h2.8l4 9.8h0.1l3.9-9.8z"/>
			</g>
			<g id="Google_Mark_1_">
				<path id="Blue_500" class="s1" d="m863.6 51.1q0-1.2-0.2-2.4h-10.7v4.4h6.1c-0.2 1.5-1 2.7-2.3 3.6v2.8h3.7c2.2-2 3.4-4.9 3.4-8.4z"/>
				<path id="Green_500_1_" class="s1" d="m856.5 56.7c-1 0.7-2.3 1.1-3.8 1.1-3 0-5.5-2.1-6.4-4.8h-3.8v3c1.8 3.7 5.7 6.3 10.2 6.3 3 0 5.6-1 7.5-2.8z"/>
				<path id="Yellow_500_1_" class="s1" d="m845.9 50.9q0-1.2 0.4-2.2v-3h-3.8c-0.8 1.6-1.2 3.3-1.2 5.2q0 2.7 1.2 5.1l3.8-3q-0.4-1-0.4-2.1z"/>
				<path id="Red_500" class="s1" d="m852.7 44c1.6 0 3.2 0.5 4.3 1.7l3.3-3.3c-2-1.8-4.6-2.9-7.6-2.9-4.5 0-8.4 2.5-10.2 6.2l3.8 3c0.9-2.7 3.4-4.7 6.4-4.7z"/>
			</g>
		</g>
	</g>
	<g id="bePaid">
		<path fill-rule="evenodd" class="s1" d="m726.1 62.7c-6.2 0-11.5-5.4-11.5-12.6l9.3-10c7.9-0.5 13.3 5.3 13.3 11.4q0 1.5-0.3 2.9h-15.9c1 1.7 2.8 2.9 5 2.9h8.3v5.4zm-5-14h10.1c-1-1.8-2.9-3-5.1-3-2.2 0-4.1 1.2-5 3z"/>
		<path fill-rule="evenodd" class="s1" d="m697.6 42.4c1-0.8 3.2-1.7 5.6-1.7 6.1 0 11.1 5 11.1 11.2 0 6.2-5 11.2-11.1 11.2-6.2 0-11.2-5-11.2-11.2v-16.1h5.6zm11.3 9.5c0-3.2-2.6-5.8-5.7-5.8-3.2 0-5.8 2.6-5.8 5.8 0 3.2 2.6 5.7 5.8 5.7 3.1 0 5.7-2.5 5.7-5.7z"/>
		<path fill-rule="evenodd" class="s1" d="m818.9 35.8v19.4l-9.3 7.9c-8.4 0-13-5-13-11.2 0-6.2 5-11.2 11.2-11.2 2.3 0 4.5 0.9 5.5 1.7v-6.6zm-5.4 16.1c0-3.2-2.5-5.8-5.7-5.8-3.2 0-5.8 2.6-5.8 5.8 0 3.2 2.6 5.8 5.8 5.8 3.2 0 5.7-2.6 5.7-5.8z"/>
		<path fill-rule="evenodd" class="s1" d="m746 67.7h-5.6l-0.1-15.7v-0.5c0-6.1 5-11.1 11.2-11.1 6.2 0 11.2 5 11.2 11.1 0 6.2-5 11.2-11.2 11.2-2.3 0-4.5-0.9-5.5-1.7zm11.2-16.1c0-3.2-2.5-5.8-5.7-5.8-3.2 0-5.8 2.6-5.8 5.8 0 3.2 2.6 5.8 5.8 5.8 3.2 0 5.7-2.6 5.7-5.8z"/>
		<path fill-rule="evenodd" class="s1" d="m780 57.4l-5.6 5.6c-6.2 0-11.3-5.1-11.3-11.3 0-6.3 5.1-11.4 11.3-11.4 6.3 0 11.3 5.1 11.3 11.4v11h-5.7zm0.3-5.6c0-3.3-2.6-5.9-5.9-5.9-3.2 0-5.8 2.6-5.8 5.9 0 3.2 2.6 5.8 5.8 5.8 3.3 0 5.9-2.6 5.9-5.8z"/>
		<path class="s1" d="m788.4 45.9h5.6v16.8h-5.6z"/>
		<path class="s2" d="m788.4 35.8h5.6v5.5h-5.6z"/>
	</g>
	<g id="Cart">
		<g id="Belcart">
			<g id="belkart">
				<g>
					<path fill-rule="evenodd" class="s3" d="m463.7 85.6c0 2.7-2 4.7-4.8 4.7-2.7 0-4.9-1.8-4.9-5.2v-1.7c0-3.3 1.6-5.7 4.6-6.2l4.3-0.6v1.8l-3.9 0.4c-1.8 0.4-2.9 1.6-3 3.9 0.7-1.3 2-1.7 3.2-1.7 2.6 0 4.5 1.9 4.5 4.6zm-2 0c0-1.7-1.2-2.9-2.8-2.9-1.7 0-2.9 1.2-2.9 2.9 0 1.6 1.2 2.8 2.9 2.8 1.6 0 2.8-1.2 2.8-2.8z"/>
					<path fill-rule="evenodd" class="s3" d="m467 86.1c0.1 1.5 1.3 2.5 2.8 2.5 1.1 0 1.9-0.5 2.3-1.1h2c-0.6 1.6-2.2 2.8-4.3 2.8-2.8 0-4.9-1.9-4.9-4.8 0-2.8 2-4.9 4.7-4.9 2.6 0 4.5 1.7 4.8 4.7q0 0.4 0 0.8zm5.3-1.5c0-1.4-1.1-2.3-2.6-2.3-1.5 0-2.6 0.9-2.7 2.3z"/>
					<path class="s3" d="m475.1 88.3c0.7 0 1.5-0.4 1.5-1.9v-5.6h7.3v9.3h-2.1v-7.5h-3.3v3.8c0 2.6-1.5 3.8-3.4 3.7z"/>
					<path class="s3" d="m489.4 85.1l4.4-4.3h-2.3l-2.5 2.4-1.4 1.3v-3.7h-1.9-0.1v9.3h0.1 1.9v-4.4l1.4 1.6 2.5 2.8h2.4z"/>
					<path fill-rule="evenodd" class="s3" d="m503.8 80.8v9.3h-2.1v-1.4c-0.8 1-2.2 1.6-3.4 1.6q0 0-0.1 0c-1.4 0-2.5-0.5-3.2-1.3q-0.1-0.1-0.1-0.1-0.1-0.1-0.1-0.1-1.2-1.4-1.2-3.3 0 0 0-0.1c0-1.3 0.4-2.5 1.2-3.3q0-0.1 0.1-0.1 0 0 0.1-0.1c0.7-0.8 1.8-1.3 3.2-1.3q0.1 0 0.1 0c1.2 0 2.6 0.6 3.4 1.6l0.2-1.4zm-2 4.6c0-1.6-1.3-2.9-3-2.9-1.8 0-3 1.2-3 2.9 0 1.8 1.2 3 3 3 1.7 0 3-1.3 3-3z"/>
					<path fill-rule="evenodd" class="s3" d="m507.3 80.8l0.3 1.4c0.8-1 2.1-1.6 3.4-1.6q0.1 0 0.1 0c1.3 0 2.4 0.5 3.2 1.3q0.1 0.1 0.1 0.1 0 0 0.1 0.1c0.7 0.8 1.2 2 1.2 3.3q0 0.1 0 0.1c0 1.3-0.5 2.4-1.2 3.3q-0.1 0-0.1 0.1 0 0-0.1 0.1c-0.8 0.8-1.9 1.3-3.2 1.3q0 0-0.1 0c-1.3 0-2.6-0.6-3.4-1.6v5.6h-2.1v-13.5zm3.2 7.6c1.8 0 3.1-1.2 3.1-3 0-1.7-1.3-2.9-3.1-2.9-1.7 0-2.9 1.3-2.9 2.9 0 1.7 1.2 3 2.9 3z"/>
					<path class="s3" d="m531 84.3v5.8h-2v-5.3c0-1.7-0.9-2.4-2.1-2.4-1.1 0-2 0.8-2 2.4v5.3h-2.1v-5.3c0-1.7-0.9-2.4-2-2.4-1.2 0-2.1 0.8-2.1 2.4v5.3h-2v-9.3h1.8l0.2 1.3c0.5-0.9 1.4-1.5 2.8-1.5 1.3 0 2.3 0.5 2.8 1.5 0.7-0.9 1.7-1.5 3.2-1.5 2.1 0 3.5 1.4 3.5 3.7z"/>
				</g>
				<g>
					<path class="s1" d="m489.3 57l-9.7 9.6c-0.7 0.6-0.7 1.4-0.4 2 0.2 0.5 0.8 1.1 1.7 1.1l17.1 0.1c1.3 0 2.4-1.1 2.4-2.4q0-0.1 0-0.2c0.1-3.7-1.4-7.4-4.1-10.1-1.9-2-5-2-7-0.1z"/>
					<path class="s1" d="m478.1 49.8l-13.6-0.2c-0.9 0-1.5 0.6-1.7 1.2-0.2 0.5-0.3 1.3 0.4 2l12.1 12.1c0.9 1 2.4 1 3.4 0.1q0-0.1 0.1-0.2c2.7-2.6 4.2-6.3 4.3-10 0-2.8-2.2-5-5-5z"/>
					<path class="s1" d="m465 47.8q0.1 0 0.2 0c3.7 0.1 7.4-1.4 10.1-4.1 2-1.9 2-5 0.1-7l-9.6-9.7c-0.6-0.7-1.4-0.7-2-0.4-0.5 0.2-1.1 0.8-1.1 1.7l-0.1 17.1c0 1.3 1.1 2.4 2.4 2.4z"/>
					<path class="s1" d="m467.6 26.2c2.6 2.7 6.3 4.2 10 4.3 2.8 0 5-2.2 5-5l0.2-13.6c0-0.9-0.6-1.5-1.2-1.7-0.5-0.2-1.3-0.3-2 0.4l-12.1 12.1c-1 0.9-1 2.4-0.1 3.4q0.1 0 0.2 0.1z"/>
					<path class="s1" d="m495.7 22.8l9.7-9.6c0.7-0.6 0.7-1.4 0.4-2-0.2-0.5-0.8-1.1-1.7-1.1l-17.1-0.1c-1.3 0-2.4 1.1-2.4 2.4q0 0.1 0 0.2c-0.1 3.7 1.4 7.4 4.1 10.1 1.9 2 5 2 7 0.1z"/>
					<path class="s1" d="m506.9 30l13.6 0.2c0.9 0 1.5-0.6 1.7-1.2 0.2-0.5 0.3-1.3-0.4-2l-12.1-12.1c-0.9-1-2.4-1-3.4-0.1q0 0.1-0.1 0.2c-2.7 2.6-4.2 6.3-4.3 10 0 2.8 2.2 5 5 5z"/>
					<path class="s1" d="m520 32q-0.1 0-0.2 0c-3.7-0.1-7.4 1.4-10.1 4.1-2 1.9-2 5-0.1 7l9.6 9.7c0.6 0.7 1.4 0.7 2 0.4 0.5-0.2 1.1-0.8 1.1-1.7l0.1-17.1c0-1.3-1.1-2.4-2.4-2.4z"/>
					<path class="s1" d="m517.4 53.6c-2.6-2.7-6.3-4.2-10-4.3-2.8 0-5 2.2-5 5l-0.2 13.6c0 0.9 0.6 1.5 1.2 1.7 0.5 0.2 1.3 0.3 2-0.4l12.1-12.1c1-0.9 1-2.4 0.1-3.4q-0.1 0-0.2-0.1z"/>
				</g>
			</g>
			<g id="belcart_pass">
				<g>
					<g>
						<g>
							<g>
								<path class="s3" d="m577.6 64.2c-1.5-1.6-4-1.6-5.5-0.1l-7.7 7.6c-0.5 0.5-0.5 1.1-0.3 1.6 0.2 0.4 0.6 0.9 1.3 0.9h13.5c1.1 0 2-0.8 2-1.9q0-0.1 0-0.1c0-3-1.2-5.9-3.3-8z"/>
							</g>
							<g>
								<path class="s3" d="m567.1 62.3c0.1-2.1-1.7-3.9-3.8-3.9l-10.8-0.1c-0.7 0-1.2 0.4-1.3 0.9-0.2 0.4-0.2 1.1 0.3 1.6l9.5 9.5c0.7 0.8 1.9 0.8 2.7 0.1q0-0.1 0.1-0.1c2.1-2.1 3.3-5 3.3-8z"/>
							</g>
							<g>
								<path class="s3" d="m561 53.6c1.6-1.5 1.6-4 0.1-5.5l-7.5-7.7c-0.6-0.5-1.2-0.5-1.6-0.3-0.5 0.2-0.9 0.6-1 1.3v13.6c0 1 0.8 1.9 1.9 1.9q0.1 0 0.1 0c3 0 5.9-1.2 8-3.3z"/>
							</g>
							<g>
								<path class="s3" d="m571.6 37c1.5 1.6 4 1.6 5.5 0.1l7.7-7.5c0.5-0.6 0.5-1.2 0.3-1.6-0.2-0.5-0.6-0.9-1.3-1h-13.5c-1.1 0-2 0.8-2 1.9q0 0.1 0 0.1c0 3 1.2 5.9 3.3 8z"/>
							</g>
							<g>
								<path class="s3" d="m582.1 38.9c-0.1 2.1 1.7 3.9 3.8 3.9l10.8 0.1c0.7 0 1.2-0.4 1.3-0.9 0.2-0.4 0.2-1-0.3-1.5l-9.5-9.7c-0.7-0.7-1.9-0.7-2.7 0q0 0.1-0.1 0.1c-2.1 2.1-3.3 5-3.3 8z"/>
							</g>
							<g>
								<path class="s3" d="m588.2 47.6c-1.6 1.5-1.6 4-0.1 5.5l7.6 7.7c0.5 0.5 1.1 0.5 1.6 0.3 0.4-0.1 0.9-0.6 0.9-1.3v-13.5c0-1.1-0.8-1.9-1.9-2q-0.1 0-0.1 0c-3 0-5.9 1.2-8 3.3z"/>
							</g>
							<g>
								<path class="s3" d="m586.3 58.1c-2.1-0.1-3.9 1.7-3.9 3.8l-0.1 10.8c0 0.7 0.4 1.2 0.9 1.3 0.4 0.2 1.1 0.2 1.6-0.3l9.5-9.5c0.8-0.7 0.8-1.9 0.1-2.7q-0.1 0-0.1-0.1c-2.1-2.1-5-3.3-8-3.3z"/>
							</g>
						</g>
					</g>
					<path fill-rule="evenodd" class="s3" d="m567.6 36.7v2c0 1.7-1.4 3.1-3.1 3.1h-1.1c-0.2 0-0.3-0.1-0.4-0.3l-0.4-3.1q0-0.2 0.1-0.2c0.3-0.3 0.6-0.7 0.6-1.2 0-0.8-0.7-1.4-1.5-1.3-0.6 0.1-1.1 0.6-1.1 1.2-0.1 0.5 0.2 1 0.6 1.3q0.1 0 0.1 0.2l-0.5 3.1c0 0.2-0.2 0.3-0.4 0.3h-1c-1.7 0-3.1-1.4-3.1-3.1v-2c0-1.3 0.8-2.5 2-2.9v-0.9c0-2 1.6-3.6 3.6-3.6 2 0.1 3.6 1.7 3.6 3.7v0.8c1.1 0.4 1.9 1.5 2 2.9zm-2.8-3.7c0-1.6-1.2-2.9-2.8-2.9-1.5 0-2.8 1.3-2.8 2.8v0.7q0.1 0 0.3 0c0.1 0 5.2 0 5.3 0z"/>
				</g>
				<g id="belcart_pass">
					<g>
						<path fill-rule="evenodd" class="s3" d="m619.3 38.7c0 2.2-1.6 3.7-3.8 3.7-2.1 0-3.9-1.4-3.9-4v-1.4c0-2.5 1.3-4.4 3.6-4.9l3.4-0.4v1.4l-3.1 0.4c-1.4 0.3-2.2 1.2-2.3 3 0.5-1 1.6-1.3 2.5-1.3 2.1 0 3.6 1.4 3.6 3.5zm-1.6 0c0-1.3-0.9-2.2-2.2-2.2-1.3 0-2.3 0.9-2.3 2.2 0 1.4 1 2.3 2.3 2.3 1.3 0 2.2-0.9 2.2-2.3z"/>
						<path fill-rule="evenodd" class="s3" d="m621.8 39.2c0 0.2 0.4 0.8 0.9 1.5q-0.1-0.1-0.3-0.2c0.2 0.3 0.5 0.6 0.8 0.9 0.3 0.5 0.6 0.9 0.7 1-2.1 0-3.7-1.5-3.7-3.8 0-2.1 1.5-3.8 3.7-3.8 2 0 3.5 1.3 3.7 3.7q0 0.3 0 0.7zm1.4 2.2q-0.2-0.3-0.5-0.7c0.4 0.3 0.8 0.4 1.3 0.4 0.9 0 1.5-0.4 1.8-0.9h1.6c-0.4 1.3-1.7 2.2-3.4 2.2 0 0-0.4-0.5-0.8-1zm-1.1-1.2q0.1 0.2 0.3 0.3c-0.1-0.2-0.3-0.3-0.3-0.3zm3.9-2.3c0-1-0.9-1.8-2.1-1.8-1.1 0-2 0.8-2.1 1.8z"/>
						<path class="s3" d="m628.2 40.9c0.5 0 1.1-0.3 1.1-1.5v-4.4h5.7v7.3h-1.6v-5.9h-2.5v3c0 2.1-1.2 3-2.8 2.9z"/>
						<path class="s3" d="m639.4 38.4l3.5-3.4h-1.9l-1.9 1.9-1.1 1v-2.9h-1.5-0.1v7.3h0.1 1.5v-3.4l1.1 1.2 1.9 2.2h1.9z"/>
						<path fill-rule="evenodd" class="s3" d="m650.7 35v7.3h-1.7v-1.1c-0.6 0.8-1.7 1.2-2.6 1.2q0 0-0.1 0c-1.1 0-1.9-0.3-2.5-1q-0.1 0-0.1-0.1-0.1 0-0.1 0-0.9-1-0.9-2.7c0-1 0.3-1.9 0.9-2.6q0 0 0.1-0.1 0 0 0.1-0.1c0.6-0.6 1.4-1 2.5-1q0.1 0 0.1 0c0.9 0 2 0.5 2.6 1.3l0.2-1.1zm-1.6 3.6c0-1.3-1-2.3-2.3-2.3-1.4 0-2.4 1-2.4 2.3 0 1.4 1 2.4 2.4 2.4 1.3 0 2.3-1 2.3-2.4z"/>
						<path fill-rule="evenodd" class="s3" d="m653.5 35l0.1 1.1c0.7-0.8 1.7-1.3 2.7-1.3q0 0 0.1 0c1.1 0 1.9 0.4 2.5 1q0.1 0.1 0.1 0.1 0 0.1 0.1 0.1c0.6 0.7 0.9 1.6 0.9 2.6q0 1.7-0.9 2.7-0.1 0-0.1 0 0 0.1-0.1 0.1c-0.6 0.6-1.4 1-2.5 1q-0.1 0-0.1 0c-1 0-2-0.4-2.7-1.2v4.4h-1.6v-10.6zm2.6 6c1.4 0 2.3-1 2.3-2.4 0-1.3-0.9-2.3-2.3-2.3-1.4 0-2.4 1-2.4 2.3 0 1.4 1 2.4 2.4 2.4z"/>
						<path class="s3" d="m672 37.7v4.6h-1.6v-4.2c0-1.3-0.7-1.9-1.6-1.9-0.9 0-1.6 0.7-1.6 1.9v4.2h-1.6v-4.2c0-1.3-0.7-1.9-1.6-1.9-0.9 0-1.6 0.7-1.6 1.9v4.2h-1.6v-7.3h1.4l0.2 1c0.4-0.7 1.1-1.2 2.2-1.2 1 0 1.8 0.5 2.2 1.2 0.5-0.7 1.3-1.2 2.5-1.2 1.6 0 2.7 1.1 2.7 2.9z"/>
					</g>
					<g>
						<path class="s3" d="m617.2 47.8h1.3v7.2h-1.5v-4.8l-3.9 4.8h-1.3v-7.2h1.5v4.8z"/>
						<path class="s3" d="m624.8 47.8h1.4v7.2h-1.4v-2.6h-3.6v2.6h-1.4v-7.2h1.4v3.1h3.6z"/>
						<path class="s3" d="m669.2 55v-5.9h-2.3v-1.3h6.1v1.3h-2.3v5.9z"/>
						<path fill-rule="evenodd" class="s3" d="m635.4 51.9c0.1 1.1 1 1.9 2.2 1.9 0.8 0 1.4-0.3 1.7-0.8h1.6c-0.5 1.2-1.8 2.1-3.4 2.1-2.1 0-3.7-1.5-3.7-3.7 0-2.1 1.5-3.7 3.6-3.7 2 0 3.5 1.3 3.7 3.6q0 0.3 0 0.6zm4.1-1.2c-0.1-1-0.9-1.7-2.1-1.7-1.1 0-2 0.7-2 1.7z"/>
						<path fill-rule="evenodd" class="s3" d="m660.7 51.9c0.1 1.1 1 1.9 2.2 1.9 0.8 0 1.4-0.3 1.8-0.8h1.5c-0.4 1.2-1.7 2.1-3.3 2.1-2.2 0-3.8-1.5-3.8-3.7 0-2.1 1.6-3.7 3.7-3.7 2 0 3.4 1.3 3.6 3.6q0 0.3 0 0.6zm4.1-1.2c0-1-0.8-1.7-2-1.7-1.1 0-2 0.7-2.1 1.7z"/>
						<path class="s3" d="m656.5 47.8h1.4v7.2h-1.4v-2.6h-3.6v2.6h-1.4v-7.2h1.4v3.1h3.6z"/>
						<path class="s3" d="m629.6 55v-5.9h-2.3v-1.3h6.1v1.3h-2.2v5.9z"/>
						<path fill-rule="evenodd" class="s3" d="m643.8 47.7l0.2 1.1c0.6-0.8 1.7-1.2 2.6-1.2q0 0 0.1 0c1.1 0 1.9 0.4 2.5 1q0 0 0.1 0.1c0.6 0.7 0.9 1.6 0.9 2.6 0 1.1-0.3 2-0.9 2.6q0 0 0 0.1-0.1 0-0.1 0.1c-0.6 0.6-1.5 0.9-2.5 0.9q-0.1 0-0.1 0c-0.9 0-2-0.4-2.6-1.2v4.3h-1.6v-10.4zm2.5 5.9c1.4 0 2.3-0.9 2.3-2.3 0-1.3-0.9-2.3-2.3-2.3-1.3 0-2.3 1-2.3 2.3 0 1.3 1 2.3 2.3 2.3z"/>
						<g>
							<path class="s3" d="m618.4 60.6v7.2h-1.6v-5.9h-3.3v5.9h-1.7v-7.2z"/>
							<path fill-rule="evenodd" class="s3" d="m657.4 62.9c1.7 0 2.8 0.9 2.8 2.4 0 1.6-1.1 2.5-2.8 2.5h-2.9v-7.2h1.4v2.3zm-0.2 3.5c0.9 0 1.6-0.3 1.6-1.1 0-0.7-0.7-1.1-1.6-1.1h-1.4v2.2z"/>
							<path fill-rule="evenodd" class="s3" d="m626 60.7h1.4v7.1h-1.6v-1.1c-0.6 0.8-1.6 1.2-2.6 1.2q-0.1 0-0.1 0c-1 0-1.9-0.4-2.4-1q-0.1 0-0.1 0-0.1-0.1-0.1-0.1c-0.6-0.7-0.9-1.5-0.9-2.6 0-1 0.3-1.9 0.9-2.6q0 0 0.1 0 0 0 0.1-0.1c0.6-0.6 1.4-1 2.4-1q0 0 0.1 0c1 0 2 0.5 2.6 1.2zm-0.2 3.5c0-1.3-0.9-2.2-2.3-2.2-1.3 0-2.3 0.9-2.3 2.2 0 1.4 1 2.3 2.3 2.3 1.3 0 2.3-1 2.3-2.3z"/>
							<path fill-rule="evenodd" class="s3" d="m630.4 60.6l0.2 1c0.6-0.7 1.7-1.2 2.6-1.2q0.1 0 0.1 0c1 0 1.9 0.4 2.5 1q0 0 0 0.1 0.1 0 0.1 0.1c0.6 0.6 0.9 1.5 0.9 2.5v0.1c0 1-0.3 1.9-0.9 2.5q0 0.1-0.1 0.1 0 0 0 0.1c-0.6 0.6-1.5 1-2.5 1q0 0-0.1 0c-0.9 0-2-0.5-2.6-1.2v4.2h-1.6v-10.3zm2.5 5.8c1.3 0 2.3-0.9 2.3-2.3 0-1.3-1-2.2-2.3-2.2-1.4 0-2.3 0.9-2.3 2.2 0 1.3 1 2.3 2.3 2.3z"/>
							<path class="s3" d="m646.3 66.5c0.5-0.1 1.1-0.4 1.1-1.5v-4.4h5.7v7.3h-1.6v-5.9h-2.6v3c0 2-1.1 2.9-2.7 2.9z"/>
							<path fill-rule="evenodd" class="s3" d="m645.4 64.2c0 2.2-1.6 3.7-3.8 3.7-2.2 0-3.8-1.6-3.8-3.7 0-2.1 1.6-3.7 3.8-3.7 2.2 0 3.8 1.6 3.8 3.7zm-1.6 0c0-1.3-0.9-2.3-2.2-2.3-1.3 0-2.3 1-2.3 2.3 0 1.3 1 2.3 2.3 2.3 1.3 0 2.2-1 2.2-2.3z"/>
						</g>
					</g>
				</g>
			</g>
		</g>
		<g id="Visa">
			<path class="s1" d="m50.6 31.2l-15.7 37.5h-10.2l-7.7-29.9c-0.1-0.7-0.3-1.4-0.7-2-0.4-0.6-1-1-1.6-1.3-3-1.5-6.2-2.5-9.5-3.2l0.2-1.1h16.5c1.1 0 2.1 0.4 2.9 1.1 0.8 0.7 1.4 1.7 1.5 2.7l4.1 21.7 10.1-25.5z"/>
			<path class="s1" d="m64.5 31.2l-8 37.4h-9.7l8-37.4z"/>
			<path class="s1" d="m77.2 41.6c-0.1 4.5 13.5 5 13.5 14.9 0 7.7-6.6 12.8-16.8 12.8-3.7 0-7.4-0.7-10.8-2l1.8-8.2c3 1.6 6.4 2.4 9.9 2.3 2.8 0 5.8-1.1 5.8-3.6 0.1-1.7-1.4-2.9-5-4.7-3.7-1.8-8.5-4.8-8.5-10.2 0.1-7.3 6.8-12.4 16.4-12.4 3.1 0 6.1 0.6 9 1.7l-1.7 7.9c-3-1.4-6.3-2-9.5-1.7-2.9 0.4-4.1 1.8-4.1 3.2z"/>
			<path fill-rule="evenodd" class="s1" d="m117.1 31.2l7.9 37.5h-8.9l-1.2-5.6h-12.4l-2 5.6h-10.2l14.4-34.8c0.4-0.8 0.9-1.5 1.7-2 0.7-0.4 1.6-0.7 2.5-0.7zm-3.9 24.2l-2.9-14.1-5.1 14.1z"/>
			<path fill-rule="evenodd" class="s1" d="m137.9 45.3h68.6v34.3h-68.6z"/>
			<path fill-rule="evenodd" class="s1" d="m170.7 20.6l-3.3 15.4h-4l3.3-15.4zm20.7 13.1h-5.1l-0.8 2.3h-4.2l6-14.3c0.3-0.6 0.9-1.1 1.7-1.1h3.4l3.2 15.4h-3.7zm-0.6-3.1l-1.3-5.8-2.1 5.8zm-16.1 5.7c-1.8-0.1-3.5-0.4-4.5-0.9l0.8-3.3c0.9 0.4 2 1 4 0.9 1.2 0 2.4-0.4 2.4-1.5 0-0.6-0.5-1.1-2-1.9-1.6-0.7-3.6-2-3.5-4.2 0-3 2.8-5.1 6.7-5.1 1.5 0 2.8 0.4 3.7 0.7l-0.7 3.3c-1.8-0.8-3.3-0.8-3.9-0.7-1.2 0.1-1.7 0.7-1.7 1.3 0 1.8 5.6 2 5.6 6.1 0 3.2-2.8 5.3-6.9 5.3zm-9.6-15.7l-6.5 15.4h-4.2l-3.1-12.3c-0.2-0.7-0.4-1-1-1.3-1-0.6-2.5-1-3.9-1.3l0.1-0.5h6.7c0.9 0 1.7 0.6 1.9 1.6l1.7 8.9 4.1-10.5z"/>
			<path fill-rule="evenodd" class="s4" d="m153.9 64.3c0.4 0.3 1.1 0.5 1.8 0.5 0.9 0 1.5-0.4 1.5-1.1 0-0.5-0.4-0.9-1.4-1.2-1.3-0.5-2.1-1.2-2.1-2.3 0-1.3 1-2.2 2.7-2.2 0.9 0 1.5 0.2 1.9 0.3l-0.4 1.2c-0.2-0.1-0.8-0.4-1.5-0.4-0.9 0-1.3 0.5-1.3 1 0 0.6 0.5 0.8 1.5 1.2 1.3 0.6 2 1.2 2 2.3 0 1.3-0.9 2.4-2.9 2.4-0.9 0-1.7-0.3-2.2-0.5z"/>
			<path fill-rule="evenodd" class="s4" d="m164.1 62.4h-2.9v2.3h3.3v1.2h-4.7v-7.8h4.5v1.1h-3.1v2.1h2.9z"/>
			<path fill-rule="evenodd" class="s4" d="m171.2 65.6c-0.4 0.2-1.1 0.4-2.1 0.4-2.4 0-3.9-1.6-3.9-3.9 0-2.6 1.8-4.1 4.1-4.1 1 0 1.6 0.2 1.9 0.3l-0.3 1.1c-0.3-0.1-0.9-0.3-1.5-0.3-1.6 0-2.7 1-2.7 2.9 0 1.7 1 2.8 2.7 2.8 0.5 0 1.2-0.1 1.5-0.3z"/>
			<path fill-rule="evenodd" class="s4" d="m173.7 58.1v4.5c0 1.5 0.6 2.2 1.6 2.2 1 0 1.6-0.7 1.6-2.2v-4.5h1.4v4.4c0 2.4-1.2 3.5-3.1 3.5-1.8 0-3-1-3-3.5v-4.4z"/>
			<path fill-rule="evenodd" class="s4" d="m179.8 58.2c0.6-0.1 1.4-0.2 2.2-0.2 1.1 0 1.8 0.2 2.4 0.6 0.4 0.4 0.6 0.9 0.6 1.6 0 1-0.6 1.7-1.4 2 0.6 0.2 0.9 0.7 1.1 1.5 0.3 1 0.5 1.9 0.6 2.2h-1.4c-0.2-0.3-0.3-0.9-0.6-1.9-0.2-1-0.5-1.3-1.3-1.3h-0.8v3.2h-1.4zm1.4 3.4h0.9c0.9 0 1.5-0.5 1.5-1.3 0-0.8-0.6-1.2-1.5-1.2q-0.7 0-0.9 0z"/>
			<path fill-rule="evenodd" class="s4" d="m190.6 62.4h-2.9v2.3h3.3v1.2h-4.7v-7.8h4.5v1.1h-3.1v2.1h2.9z"/>
		</g>
		<g id="Mastercard">
			<path class="s1" d="m286.8 74.1h-26.4v-47.4h26.4z"/>
			<path class="s3" d="m265.2 63.6c2 4.1 4.9 7.6 8.4 10.5-4.4 3.5-9.7 5.6-15.4 6.2-5.6 0.6-11.3-0.4-16.3-2.8-5.1-2.5-9.4-6.4-12.4-11.1-3-4.8-4.6-10.4-4.6-16 0-5.6 1.6-11.2 4.6-16 3-4.7 7.3-8.6 12.4-11.1 5-2.4 10.7-3.4 16.3-2.8 5.7 0.6 11 2.7 15.4 6.2-3.5 2.9-6.4 6.4-8.4 10.5-2 4.1-3.1 8.6-3.1 13.2 0 4.6 1.1 9.1 3.1 13.2z"/>
			<path class="s2" d="m322.4 50.4c0 5.6-1.6 11.2-4.6 16-3 4.8-7.3 8.6-12.4 11.1-5.1 2.4-10.8 3.4-16.4 2.8-5.6-0.6-10.9-2.7-15.4-6.2 3.6-2.8 6.5-6.4 8.5-10.5 2-4.1 3-8.6 3-13.2 0-4.6-1-9.1-3-13.2-2-4.1-4.9-7.6-8.5-10.5 4.5-3.5 9.8-5.6 15.4-6.2 5.6-0.6 11.3 0.4 16.4 2.8 5.1 2.5 9.4 6.3 12.4 11.1 3 4.8 4.6 10.4 4.6 16z"/>
			<path fill-rule="evenodd" class="s1" d="m355.2 80h-1.3v-15h1.3zm9.5-15q1.7 0 3.4 0.5c0.9 0.3 1.8 0.8 2.5 1.5 0.7 0.7 1.3 1.5 1.6 2.4 0.8 2 0.8 4.2 0 6.2-0.3 0.9-0.9 1.7-1.6 2.4-0.7 0.6-1.6 1.2-2.5 1.5q-1.7 0.5-3.4 0.5h-5.5v-15zm-4.1 1.2v12.6h4.1q1.5 0 2.9-0.5 1.2-0.4 2.1-1.2 0.9-0.9 1.3-2c0.6-1.7 0.6-3.5 0-5.2-0.3-0.7-0.7-1.4-1.3-2q-0.9-0.8-2.1-1.2-1.4-0.5-2.9-0.5zm27.4-1.4q1 0 1.9 0.2 0.9 0.2 1.7 0.7 0.7 0.3 1.4 0.9 0.6 0.6 1.1 1.3l-1.1 0.7q-0.4-0.6-0.9-1-0.6-0.5-1.2-0.8-0.6-0.4-1.4-0.5-0.7-0.2-1.5-0.2-1.3 0-2.5 0.5-1.1 0.4-2 1.3-0.8 0.8-1.3 2c-0.6 1.7-0.6 3.5 0 5.2q0.5 1.2 1.3 2 0.9 0.9 2 1.3 1.2 0.5 2.5 0.5 0.8 0 1.5-0.2 0.7-0.1 1.4-0.5 0.6-0.3 1.2-0.8 0.5-0.4 0.9-1l1 0.7q-0.4 0.7-1.1 1.3-0.6 0.6-1.4 1-0.8 0.4-1.6 0.6c-1.7 0.3-3.4 0.2-4.9-0.4-0.9-0.4-1.7-0.9-2.4-1.6q-1.1-1-1.7-2.4c-0.7-2-0.7-4.2 0-6.2q0.6-1.4 1.7-2.4c0.7-0.7 1.5-1.2 2.4-1.6q1.5-0.6 3-0.6zm10.1 6.9q0.3-0.5 0.7-0.9 0.4-0.4 0.9-0.6 0.4-0.2 0.9-0.3 0.5-0.1 1.1-0.1 0.8-0.1 1.7 0.2 0.7 0.3 1.3 0.8 0.6 0.6 0.9 1.3 0.3 0.8 0.3 1.7v6.2h-1.2v-5.8q0-0.7-0.2-1.4-0.2-0.6-0.7-1-0.4-0.5-1-0.7-0.7-0.2-1.4-0.2-0.6 0-1.3 0.3-0.6 0.2-1 0.6-0.5 0.5-0.8 1.1-0.2 0.6-0.2 1.4v5.7h-1.2v-15.4h1.2zm15-1.9q1 0 1.9 0.3 0.8 0.4 1.5 1.1 0.6 0.7 1 1.6 0.3 1 0.3 2.1 0 0.1 0 0.3 0 0.1 0 0.2h-8.4q0 0.8 0.4 1.6 0.3 0.6 0.8 1.1 0.6 0.5 1.2 0.8 0.7 0.2 1.5 0.2 1 0 1.9-0.4 0.8-0.4 1.5-1l0.6 0.8q-0.4 0.5-1 0.8-0.4 0.3-1 0.5-0.5 0.2-1 0.3-0.6 0.1-1.1 0.1-1 0-2-0.4-0.9-0.4-1.6-1.1-0.7-0.7-1.1-1.6-0.4-1-0.3-2.1-0.1-1.1 0.3-2.1 0.4-1 1.1-1.7 0.7-0.7 1.6-1.1 0.9-0.3 1.9-0.3zm0 1q-0.7 0-1.4 0.3-0.6 0.3-1.1 0.7-0.5 0.5-0.8 1.1-0.3 0.7-0.4 1.5h7.2q-0.1-0.8-0.3-1.5-0.3-0.6-0.8-1.1-0.5-0.5-1.1-0.7-0.6-0.3-1.3-0.3zm11.7-1q1.1 0 2.1 0.4 1 0.4 1.7 1.1l-0.8 0.9q-0.6-0.6-1.4-1-0.7-0.3-1.6-0.3-0.8 0-1.5 0.3-0.7 0.3-1.2 0.9-0.6 0.5-0.9 1.2-0.6 1.7 0 3.3 0.3 0.7 0.8 1.3 0.6 0.5 1.3 0.8 0.7 0.3 1.5 0.3 0.9 0 1.7-0.3 0.7-0.4 1.3-0.9l0.8 0.8q-0.7 0.8-1.7 1.2c-1.3 0.5-2.8 0.5-4.1 0q-1-0.4-1.7-1.1-0.7-0.7-1-1.7c-0.5-1.3-0.5-2.8 0-4.1q0.3-0.9 1-1.7 0.7-0.7 1.7-1 1-0.5 2-0.4zm7.4 4.4h1.7l4.2-4.3h1.5l-4.8 4.8 4.9 5.3h-1.5l-4.3-4.7h-1.7v4.7h-1.2v-15.4h1.2z"/>
			<path class="s1" d="m376.6 42h-11v-19.8h11z"/>
			<path class="s3" d="m367.6 37.6c0.8 1.7 2 3.2 3.5 4.4-1.9 1.4-4.1 2.3-6.4 2.6-2.4 0.3-4.7-0.2-6.8-1.2-2.2-1-3.9-2.6-5.2-4.6-1.2-2-1.9-4.4-1.9-6.7 0-2.4 0.7-4.7 1.9-6.7 1.3-2 3-3.6 5.2-4.6 2.1-1.1 4.4-1.5 6.8-1.2 2.3 0.2 4.5 1.1 6.4 2.6-1.5 1.2-2.7 2.7-3.5 4.4-0.9 1.7-1.3 3.6-1.3 5.5 0 1.9 0.4 3.8 1.3 5.5z"/>
			<path class="s2" d="m391.4 32.1c0 2.3-0.7 4.7-1.9 6.7-1.3 2-3.1 3.6-5.2 4.6-2.1 1-4.5 1.5-6.8 1.2-2.3-0.3-4.6-1.2-6.4-2.6 1.5-1.2 2.7-2.7 3.5-4.4 0.8-1.7 1.3-3.6 1.3-5.5 0-1.9-0.5-3.8-1.3-5.5-0.8-1.7-2-3.2-3.5-4.4 1.8-1.5 4.1-2.4 6.4-2.6 2.3-0.3 4.7 0.1 6.8 1.2 2.1 1 3.9 2.6 5.2 4.6 1.2 2 1.9 4.3 1.9 6.7z"/>
			<path class="s5" d="m390.1 39.9v-0.4h-0.2v-0.1h0.4v0.1h-0.1v0.4zm0.8 0v-0.4l-0.2 0.3-0.2-0.3v0.4h-0.1v-0.5h0.2l0.1 0.3 0.1-0.3h0.2v0.5z"/>
		</g>
	</g>
</svg>